<svg xmlns="http://www.w3.org/2000/svg" width="334" height="31" fill="none" viewBox="0 0 334 31">
  <path fill="#fff" d="M.827 25V.7h3.39v10.5h6.24V.7h3.39V25h-3.39V13.63h-6.24V25H.827Zm16.816 0V.7h9.42v2.52h-6.03v8.04h4.89v2.4h-4.89v8.91h6.09V25h-9.48Zm14.887 0V3.22h-4.11V.7h11.49v2.52h-3.99V25h-3.39Zm16.578 0V.7h13.38V25h-3.39V3.13h-6.6V25h-3.39Zm23.378.27c-1.64 0-2.95-.32-3.93-.96-.98-.64-1.68-1.55-2.1-2.73-.42-1.2-.63-2.6-.63-4.2V8.17c0-1.6.21-2.97.63-4.11.44-1.16 1.14-2.04 2.1-2.64.98-.62 2.29-.93 3.93-.93 1.64 0 2.94.31 3.9.93.96.62 1.65 1.5 2.07 2.64.44 1.14.66 2.51.66 4.11v9.24c0 1.58-.22 2.96-.66 4.14-.42 1.18-1.11 2.1-2.07 2.76-.96.64-2.26.96-3.9.96Zm0-2.67c.9 0 1.58-.18 2.04-.54.46-.38.77-.9.93-1.56.16-.68.24-1.47.24-2.37V7.48c0-.9-.08-1.67-.24-2.31-.16-.66-.47-1.16-.93-1.5-.46-.36-1.14-.54-2.04-.54-.9 0-1.59.18-2.07.54-.46.34-.77.84-.93 1.5-.16.64-.24 1.41-.24 2.31v10.65c0 .9.08 1.69.24 2.37.16.66.47 1.18.93 1.56.48.36 1.17.54 2.07.54Zm8.402 6.81v-6.84h1.11c.34-.28.67-.62.99-1.02.34-.4.65-.92.93-1.56.3-.66.57-1.5.81-2.52.24-1.04.45-2.34.63-3.9.2-1.56.35-3.45.45-5.67l.39-7.2h10.17v21.87h2.34v6.84h-2.61l-.27-4.41h-12.06l-.27 4.41h-2.61Zm4.26-6.84h7.86V3.22h-3.93l-.24 5.49c-.08 2.16-.21 3.98-.39 5.46-.16 1.46-.36 2.67-.6 3.63-.22.94-.48 1.71-.78 2.31-.28.58-.59 1.05-.93 1.41-.32.36-.65.71-.99 1.05ZM99.756 25l5.07-12.72L99.846.7h3.15l3.69 8.58 3.36-8.58h3.15l-5.1 11.85 5.34 12.45h-3.15l-3.96-9.15-3.42 9.15h-3.15Zm22.183.27c-1.64 0-2.95-.32-3.93-.96-.98-.64-1.68-1.55-2.1-2.73-.42-1.2-.63-2.6-.63-4.2V8.17c0-1.6.21-2.97.63-4.11.44-1.16 1.14-2.04 2.1-2.64.98-.62 2.29-.93 3.93-.93 1.64 0 2.94.31 3.9.93.96.62 1.65 1.5 2.07 2.64.44 1.14.66 2.51.66 4.11v9.24c0 1.58-.22 2.96-.66 4.14-.42 1.18-1.11 2.1-2.07 2.76-.96.64-2.26.96-3.9.96Zm0-2.67c.9 0 1.58-.18 2.04-.54.46-.38.77-.9.93-1.56.16-.68.24-1.47.24-2.37V7.48c0-.9-.08-1.67-.24-2.31-.16-.66-.47-1.16-.93-1.5-.46-.36-1.14-.54-2.04-.54-.9 0-1.59.18-2.07.54-.46.34-.77.84-.93 1.5-.16.64-.24 1.41-.24 2.31v10.65c0 .9.08 1.69.24 2.37.16.66.47 1.18.93 1.56.48.36 1.17.54 2.07.54Zm8.402 6.81v-6.84h1.11c.34-.28.67-.62.99-1.02.34-.4.65-.92.93-1.56.3-.66.57-1.5.81-2.52.24-1.04.45-2.34.63-3.9.2-1.56.35-3.45.45-5.67l.39-7.2h10.17v21.87h2.34v6.84h-2.61l-.27-4.41h-12.06l-.27 4.41h-2.61Zm4.26-6.84h7.86V3.22h-3.93l-.24 5.49c-.08 2.16-.21 3.98-.39 5.46-.16 1.46-.36 2.67-.6 3.63-.22.94-.48 1.71-.78 2.31-.28.58-.59 1.05-.93 1.41-.32.36-.65.71-.99 1.05ZM149.209 25l5.1-10.92c-1.08-.48-1.95-1.27-2.61-2.37-.64-1.12-.96-2.55-.96-4.29 0-1.3.24-2.45.72-3.45.48-1.02 1.28-1.82 2.4-2.4 1.12-.58 2.62-.87 4.5-.87h4.92V25h-3.39V14.92h-2.31c-.22-.02-.35-.03-.39-.03l-4.2 10.11h-3.78Zm9.42-12.51h1.26V3.13h-1.35c-1.52 0-2.67.33-3.45.99-.76.66-1.14 1.75-1.14 3.27 0 1.72.35 3 1.05 3.84.7.84 1.91 1.26 3.63 1.26Zm26.848 16.92-.27-4.41h-18.15V.7h3.39v21.87h4.38V.7h3.39v21.87h4.17V.7h3.42v21.87h2.31v6.84h-2.64Zm5.281-4.41V.7h3v16.83L200.868.7h2.43V25h-2.97V7.9l-7.05 17.1h-2.52Zm14.848 0 5.07-12.72L205.696.7h3.15l3.69 8.58 3.36-8.58h3.15l-5.1 11.85 5.34 12.45h-3.15l-3.96-9.15-3.42 9.15h-3.15Zm22.828 0V.7h5.58c1.1 0 2.05.12 2.85.36.82.24 1.5.61 2.04 1.11.54.5.94 1.14 1.2 1.92.26.76.39 1.66.39 2.7 0 1-.13 1.87-.39 2.61-.24.72-.62 1.29-1.14 1.71-.5.42-1.15.69-1.95.81.98.22 1.77.6 2.37 1.14.6.52 1.04 1.2 1.32 2.04.3.82.45 1.81.45 2.97 0 1.04-.12 1.99-.36 2.85-.24.86-.62 1.59-1.14 2.19-.5.6-1.15 1.07-1.95 1.41-.78.32-1.71.48-2.79.48h-6.48Zm3.39-2.43h2.28c1.52 0 2.53-.35 3.03-1.05.52-.72.78-1.87.78-3.45 0-1.02-.14-1.87-.42-2.55-.26-.7-.69-1.22-1.29-1.56-.58-.36-1.37-.54-2.37-.54h-2.01v9.15Zm0-11.73h2.01c.96 0 1.71-.13 2.25-.39.54-.28.92-.72 1.14-1.32.22-.6.33-1.38.33-2.34 0-1.12-.17-1.93-.51-2.43-.34-.5-.87-.81-1.59-.93-.72-.14-1.66-.21-2.82-.21h-.81v7.62ZM244.166 25V.7h3v16.83L254.276.7h2.43V25h-2.97V7.9l-7.05 17.1h-2.52Zm14.788 4.41v-6.84h1.11c.34-.28.67-.62.99-1.02.34-.4.65-.92.93-1.56.3-.66.57-1.5.81-2.52.24-1.04.45-2.34.63-3.9.2-1.56.35-3.45.45-5.67l.39-7.2h10.17v21.87h2.34v6.84h-2.61l-.27-4.41h-12.06l-.27 4.41h-2.61Zm4.26-6.84h7.86V3.22h-3.93l-.24 5.49c-.08 2.16-.21 3.98-.39 5.46-.16 1.46-.36 2.67-.6 3.63-.22.94-.48 1.71-.78 2.31-.28.58-.59 1.05-.93 1.41-.32.36-.65.71-.99 1.05ZM279.323 25V.7h9.42v2.52h-6.03v8.04h4.89v2.4h-4.89v8.91h6.09V25h-9.48Zm18.426.27c-1.64 0-2.95-.32-3.93-.96-.98-.64-1.68-1.55-2.1-2.73-.42-1.2-.63-2.6-.63-4.2V8.17c0-1.6.21-2.97.63-4.11.44-1.16 1.14-2.04 2.1-2.64.98-.62 2.29-.93 3.93-.93 1.64 0 2.94.31 3.9.93.96.62 1.65 1.5 2.07 2.64.44 1.14.66 2.51.66 4.11v9.24c0 1.58-.22 2.96-.66 4.14-.42 1.18-1.11 2.1-2.07 2.76-.96.64-2.26.96-3.9.96Zm0-2.67c.9 0 1.58-.18 2.04-.54.46-.38.77-.9.93-1.56.16-.68.24-1.47.24-2.37V7.48c0-.9-.08-1.67-.24-2.31-.16-.66-.47-1.16-.93-1.5-.46-.36-1.14-.54-2.04-.54-.9 0-1.59.18-2.07.54-.46.34-.77.84-.93 1.5-.16.64-.24 1.41-.24 2.31v10.65c0 .9.08 1.69.24 2.37.16.66.47 1.18.93 1.56.48.36 1.17.54 2.07.54Zm16.548-11.28V8.86h9.21v2.46h-9.21Zm0 5.31V14.2h9.21v2.43h-9.21Zm18.871 14.19c-1.14-.02-2.08-.32-2.82-.9-.72-.56-1.29-1.34-1.71-2.34-.42-1-.73-2.14-.93-3.42-.18-1.28-.29-2.65-.33-4.11a159.923 159.923 0 0 1 0-8.76c.04-1.46.15-2.83.33-4.11.2-1.3.51-2.45.93-3.45.42-1 .99-1.79 1.71-2.37.74-.58 1.68-.87 2.82-.87v2.16c-.7.02-1.24.42-1.62 1.2-.38.76-.65 1.77-.81 3.03a42.25 42.25 0 0 0-.3 4.2 348.877 348.877 0 0 0 0 9.24c.04 1.52.14 2.91.3 4.17.16 1.26.43 2.27.81 3.03.38.76.92 1.15 1.62 1.17v2.13Z"/>
</svg>
